<svg xmlns="http://www.w3.org/2000/svg" width="120" height="40" viewBox="0 0 120 40">
  <g fill="none" fill-rule="evenodd">
    <path fill="#FFFFFF" d="M20,0 C31.0457,0 40,8.9543 40,20 C40,31.0457 31.0457,40 20,40 C8.9543,40 0,31.0457 0,20 C0,8.9543 8.9543,0 20,0 Z M20,4 C11.1634,4 4,11.1634 4,20 C4,28.8366 11.1634,36 20,36 C28.8366,36 36,28.8366 36,20 C36,11.1634 28.8366,4 20,4 Z"/>
    <path fill="#FFFFFF" d="M20,8 C26.6274,8 32,13.3726 32,20 C32,26.6274 26.6274,32 20,32 C13.3726,32 8,26.6274 8,20 C8,13.3726 13.3726,8 20,8 Z M20,12 C15.5817,12 12,15.5817 12,20 C12,24.4183 15.5817,28 20,28 C24.4183,28 28,24.4183 28,20 C28,15.5817 24.4183,12 20,12 Z"/>
    <path fill="#FFFFFF" d="M20,16 C22.2091,16 24,17.7909 24,20 C24,22.2091 22.2091,24 20,24 C17.7909,24 16,22.2091 16,20 C16,17.7909 17.7909,16 20,16 Z"/>
    <path fill="#FFFFFF" d="M58.6,12.4 L58.6,27 L55.4,27 L55.4,12.4 L58.6,12.4 Z M69.8,12.4 L69.8,15.2 L64.4,15.2 L64.4,18.4 L69,18.4 L69,21.2 L64.4,21.2 L64.4,24.2 L70,24.2 L70,27 L61.2,27 L61.2,12.4 L69.8,12.4 Z M80.4,12.4 L80.4,15.2 L77,15.2 L77,27 L73.8,27 L73.8,15.2 L70.4,15.2 L70.4,12.4 L80.4,12.4 Z M90.2,12.4 L90.2,27 L87,27 L87,21 L83.2,21 L83.2,27 L80,27 L80,12.4 L83.2,12.4 L83.2,18.2 L87,18.2 L87,12.4 L90.2,12.4 Z M101.2,12.4 L101.2,27 L98,27 L98,21 L94.2,21 L94.2,27 L91,27 L91,12.4 L94.2,12.4 L94.2,18.2 L98,18.2 L98,12.4 L101.2,12.4 Z M112.4,12.4 L112.4,15.2 L107,15.2 L107,18.4 L111.6,18.4 L111.6,21.2 L107,21.2 L107,24.2 L112.6,24.2 L112.6,27 L103.8,27 L103.8,12.4 L112.4,12.4 Z"/>
  </g>
</svg>
